<svg width="18" height="19" viewBox="0 0 18 19" fill="none" xmlns="http://www.w3.org/2000/svg">
<path d="M3.79139 18.4801C3.79139 18.2721 3.75139 18.1681 3.67139 18.1681L3.11939 18.4321C3.11939 18.3201 3.05539 18.2401 2.92739 18.1921L2.73539 18.1681C2.60739 18.1681 2.44739 18.2241 2.25539 18.3361C2.22339 18.2561 2.18339 18.1761 2.13539 18.0961C2.08739 18.0161 2.04739 17.9441 2.01539 17.8801C1.80739 17.4801 1.59939 17.0401 1.39139 16.5601C1.19939 16.0641 1.01539 15.5921 0.839391 15.1441C0.679391 14.6961 0.551391 14.3441 0.455391 14.0881C0.391391 13.8801 0.319391 13.5681 0.239391 13.1521C0.159391 12.7361 0.0793907 12.2081 -0.000609308 11.5681C0.175391 11.6801 0.311391 11.7361 0.407391 11.7361C0.519391 11.7361 0.623391 11.5681 0.719391 11.2321C0.767391 11.2961 0.855391 11.3281 0.983391 11.3281C1.07939 11.3281 1.15139 11.2961 1.19939 11.2321L1.58339 10.6561L2.01539 10.8001H2.03939C2.07139 10.8001 2.10339 10.7841 2.13539 10.7521C2.16739 10.7201 2.21539 10.6881 2.27939 10.6561C2.40739 10.5761 2.50339 10.5361 2.56739 10.5361L2.63939 10.5601C3.03939 10.7521 3.29539 11.1041 3.40739 11.6161C3.69539 12.8321 3.98339 13.4401 4.27139 13.4401C4.55939 13.4401 4.89539 13.1361 5.27939 12.5281C5.47139 12.2241 5.66339 11.8721 5.85539 11.4721C6.06339 11.0721 6.27139 10.6241 6.47939 10.1281C6.51139 10.3201 6.54339 10.4161 6.57539 10.4161C6.65539 10.4161 6.79139 10.2161 6.98339 9.81607C7.19139 9.41607 7.51939 8.86407 7.96739 8.16007C8.22339 7.72807 8.54339 7.24007 8.92739 6.69607C9.32739 6.15207 9.75139 5.59207 10.1994 5.01607C10.6474 4.44007 11.0794 3.89607 11.4954 3.38407C11.9274 2.87207 12.3114 2.43207 12.6474 2.06407C12.9834 1.69607 13.2314 1.45607 13.3914 1.34407C13.9994 0.928071 14.4794 0.528071 14.8314 0.144072C14.8154 0.256071 14.7914 0.360071 14.7594 0.456072C14.7434 0.536072 14.7354 0.592072 14.7354 0.624071C14.7354 0.688071 14.7674 0.720071 14.8314 0.720071L15.5034 0.384071V0.480072C15.5034 0.608072 15.5354 0.672072 15.5994 0.672072C15.6474 0.672072 15.7434 0.600072 15.8874 0.456072C16.0314 0.312072 16.1114 0.208072 16.1274 0.144072L16.0794 0.480072L16.8954 7.20024e-05L16.7034 0.432072C16.9594 0.256072 17.1434 0.168071 17.2554 0.168071C17.3194 0.168071 17.3674 0.208071 17.3994 0.288071C17.4314 0.352071 17.4474 0.416071 17.4474 0.480072C17.4474 0.576071 17.4074 0.688071 17.3274 0.816072C17.2474 0.944072 17.1434 1.09607 17.0154 1.27207C16.9194 1.40007 16.7594 1.59207 16.5354 1.84807C16.3274 2.08807 16.0074 2.44807 15.5754 2.92807C15.1434 3.39207 14.5674 4.04007 13.8474 4.87207C13.6554 5.08007 13.3594 5.44807 12.9594 5.97607C12.5594 6.48807 12.1034 7.08807 11.5914 7.77607C11.0954 8.44807 10.5994 9.12807 10.1034 9.81607C9.60739 10.5041 9.16739 11.1281 8.78339 11.6881C8.39939 12.2321 8.12739 12.6401 7.96739 12.9121L6.47939 15.4321C6.15939 15.9761 5.89539 16.4241 5.68739 16.7761C5.47939 17.1121 5.31939 17.3441 5.20739 17.4721C4.96739 17.7601 4.70339 18.0161 4.41539 18.2401L4.19939 18.1201L4.00739 18.2401L3.79139 18.4801Z" fill="white"/>
</svg>
